# xmcd
#
# Track frame offsets:
# 150
# 10006
# 23667
# 34307
# 49371
# 63232
# 77334
# 93426
# 106689
# 122937
# 135849
# 151926
# 163597
# 177074
# 193663
# 209688
# 223334
#
# Disc length: 3192 seconds
#
#
# Revision: 0
# Processed by: cddbd v1.5.2PL0 Copyright (c) Steve Scherf et al.
# Submitted via: FreeRIP 2.96 
#
DISCID=dd0c7611
DTITLE=Brenno Reis and Marco Viola - Viola no Peito
DYEAR=2006
DGENRE=Country
TTITLE0=Viola no peito - Brenno Reis and Marco Viola
TTITLE1=Entre o rodeio e você - Brenno Reis and Marco Viola
TTITLE2=Festa em americana - Brenno Reis and Marco Viola
TTITLE3=Vê se não briga comigo - Brenno Reis and Marco Viola
TTITLE4=Na boca do povo - Brenno Reis and Marco Viola
TTITLE5=O mundo no avesso - Brenno Reis and Marco Viola
TTITLE6=Faça do seu jeito - Brenno Reis and Marco Viola
TTITLE7=Viola abençoada - Brenno Reis and Marco Viola
TTITLE8=Será que foi saudade - Brenno Reis and Marco Viola
TTITLE9=Meteu o pau na vizinha - Brenno Reis and Marco Viola
TTITLE10=Louco por você - Brenno Reis and Marco Viola
TTITLE11=A magestade o pagode - Brenno Reis and Marco Viola
TTITLE12=Cunhada - Brenno Reis and Marco Viola
TTITLE13=Desgruda de mim - Brenno Reis and Marco Viola
TTITLE14=Pagode na praça - Brenno Reis and Marco Viola
TTITLE15=Não vou lhe impedir - Brenno Reis and Marco Viola
TTITLE16=Ingrata Maria - Brenno Reis and Marco Viola
EXTD=
EXTT0=
EXTT1=
EXTT2=
EXTT3=
EXTT4=
EXTT5=
EXTT6=
EXTT7=
EXTT8=
EXTT9=
EXTT10=
EXTT11=
EXTT12=
EXTT13=
EXTT14=
EXTT15=
EXTT16=
PLAYORDER=
